<?xml version="1.0" standalone="no"?>
<!DOCTYPE svg PUBLIC "-//W3C//DTD SVG 20010904//EN"
 "http://www.w3.org/TR/2001/REC-SVG-20010904/DTD/svg10.dtd">
<svg version="1.0" xmlns="http://www.w3.org/2000/svg"
 width="995.000000pt" height="1405.000000pt" viewBox="0 0 995.000000 1405.000000"
 preserveAspectRatio="xMidYMid meet">
<metadata>
Created by potrace 1.11, written by Peter Selinger 2001-2013
</metadata>
<g transform="translate(0.000000,1405.000000) scale(0.100000,-0.100000)"
fill="#000000" stroke="none">
<path d="M20 13090 l0 -290 1380 0 1380 0 0 290 0 290 -1380 0 -1380 0 0 -290z"/>
<path d="M4381 10474 c-129 -35 -235 -65 -237 -67 -2 -2 0 -37 6 -78 17 -131
21 -121 -77 -174 -49 -26 -122 -70 -163 -98 -41 -28 -79 -50 -85 -50 -5 0 -49
25 -96 56 l-86 55 -182 -182 c-99 -99 -181 -185 -181 -189 0 -4 25 -43 55 -86
30 -43 55 -84 55 -90 0 -5 -21 -43 -47 -84 -27 -40 -68 -115 -93 -165 l-44
-92 -46 5 c-25 2 -75 7 -111 10 l-65 5 -68 -251 c-37 -138 -64 -254 -61 -258
4 -3 47 -24 97 -47 l90 -40 1 -196 2 -196 -98 -49 c-70 -34 -97 -52 -94 -63 2
-8 32 -122 67 -253 l63 -238 45 3 46 3 118 155 c65 85 129 171 142 190 l24 35
-20 90 c-25 117 -36 417 -18 536 53 369 205 665 483 948 250 253 548 407 889
457 148 22 389 15 533 -16 444 -94 837 -354 1079 -715 181 -269 285 -685 256
-1021 -9 -102 -32 -241 -46 -277 -2 -7 58 -97 134 -202 l138 -190 54 -3 55 -3
66 248 66 248 -95 48 -94 48 6 37 c3 20 6 110 6 200 l0 163 81 39 c44 21 86
41 92 43 9 3 -26 147 -115 476 l-10 34 -101 -6 -102 -7 -37 78 c-20 42 -64
121 -98 175 l-61 97 55 79 c31 44 56 83 56 87 0 5 -82 91 -182 191 l-181 181
-74 -49 c-40 -27 -79 -52 -87 -55 -7 -3 -55 22 -107 56 -52 33 -129 77 -172
98 l-77 37 5 40 c3 22 6 69 7 104 l3 64 -249 68 c-138 38 -251 68 -252 66 -1
-1 -23 -44 -48 -95 -35 -70 -51 -92 -62 -88 -9 3 -101 6 -205 6 l-189 0 -45
90 c-32 64 -50 90 -63 89 -9 -1 -122 -30 -251 -65z"/>
<path d="M4860 9737 c-52 -27 -103 -97 -125 -170 -9 -29 -20 -112 -25 -185
-11 -143 -4 -234 30 -427 39 -220 90 -529 87 -531 -1 -2 -22 70 -46 159 -135
501 -150 549 -215 682 -74 150 -138 229 -218 269 -110 55 -207 15 -247 -103
-22 -68 -8 -224 30 -326 25 -67 151 -278 245 -411 119 -168 233 -334 229 -334
-2 0 -56 68 -121 152 -166 214 -243 303 -332 380 -168 148 -324 185 -407 98
-28 -29 -30 -37 -30 -103 0 -60 5 -82 29 -129 65 -129 160 -208 505 -423 122
-75 221 -139 221 -142 0 -2 -15 4 -32 15 -350 211 -527 291 -686 313 -92 12
-145 2 -191 -37 -126 -106 13 -294 274 -373 39 -12 189 -41 335 -66 146 -24
279 -47 295 -50 30 -6 30 -5 56 69 18 54 22 79 15 86 -8 8 -7 9 5 5 10 -4 30
13 64 55 26 33 52 60 58 60 5 0 3 8 -4 17 -10 11 -10 14 -2 9 8 -4 46 9 90 31
71 35 84 38 180 41 85 3 103 7 107 20 3 10 17 80 30 157 14 77 39 217 55 310
17 94 38 226 47 295 39 301 -31 533 -178 594 -51 22 -77 20 -128 -7z m127 -74
c87 -57 141 -284 114 -485 -10 -78 -113 -659 -126 -715 -4 -19 -12 -23 -40
-23 -19 0 -35 3 -35 6 0 4 -25 151 -55 327 -77 445 -86 645 -35 780 45 120
105 157 177 110z m-671 -199 c90 -43 191 -208 264 -434 59 -180 174 -630 164
-640 -5 -5 -20 -11 -34 -14 -23 -6 -35 8 -153 186 -70 106 -155 231 -187 278
-33 47 -78 118 -101 158 -158 277 -131 550 47 466z m-338 -535 c95 -47 207
-161 413 -419 175 -219 186 -236 172 -253 -19 -20 -19 -20 -258 131 -369 233
-437 288 -485 388 -31 63 -38 144 -15 167 27 28 102 22 173 -14z m-118 -506
c81 -27 280 -127 483 -243 92 -52 127 -78 127 -91 0 -11 -6 -19 -12 -19 -40 0
-546 93 -604 111 -140 43 -243 116 -260 184 -23 92 91 117 266 58z m771 -90
c13 -16 12 -17 -3 -4 -10 7 -18 15 -18 17 0 8 8 3 21 -13z m-111 -169 c0 -2
-9 0 -20 6 -11 6 -20 13 -20 16 0 2 9 0 20 -6 11 -6 20 -13 20 -16z"/>
<path d="M5535 9536 c-95 -44 -179 -157 -260 -346 -28 -65 -235 -789 -235
-820 0 -4 19 -13 41 -20 23 -8 61 -26 84 -41 33 -21 46 -24 55 -16 10 9 11 9
6 0 -4 -8 14 -38 45 -75 52 -63 79 -114 99 -188 10 -38 13 -41 38 -36 15 3
101 17 192 31 442 67 571 106 686 207 72 63 98 171 56 227 -38 51 -78 66 -177
65 -133 -1 -241 -42 -490 -184 -160 -91 -235 -131 -235 -126 0 2 78 52 173
111 361 224 433 283 506 409 74 129 66 241 -20 288 -50 28 -141 20 -223 -21
-129 -64 -238 -175 -488 -499 -77 -100 -146 -186 -152 -189 -6 -4 3 11 20 32
74 95 367 529 422 626 76 132 105 229 106 354 1 77 -3 97 -24 140 -47 93 -125
118 -225 71z m149 -89 c16 -22 22 -46 24 -111 3 -71 0 -95 -28 -176 -32 -98
-105 -230 -199 -359 -29 -42 -107 -156 -173 -253 -65 -98 -122 -178 -128 -178
-5 0 -20 5 -33 11 l-23 10 59 232 c110 436 196 658 295 769 62 68 98 89 146
86 29 -2 44 -10 60 -31z m394 -504 c21 -29 14 -96 -18 -159 -54 -109 -113
-156 -495 -401 -227 -145 -229 -146 -247 -126 -15 17 -3 34 153 233 187 237
286 345 372 404 102 70 203 91 235 49z m182 -512 c16 -12 26 -30 28 -51 3 -28
-4 -39 -46 -80 -98 -94 -220 -134 -595 -196 -211 -35 -221 -36 -234 -19 -12
17 -7 22 50 53 34 19 136 76 227 127 91 51 190 104 220 117 167 74 289 91 350
49z"/>
<path d="M3712 8043 c-89 -21 -142 -71 -142 -134 0 -122 134 -189 355 -175 82
4 493 73 558 92 15 5 17 15 14 77 l-4 72 -99 17 c-379 67 -558 81 -682 51z
m487 -89 c262 -43 283 -54 159 -79 -35 -8 -148 -28 -253 -45 -214 -36 -310
-36 -386 -2 -97 43 -104 92 -20 135 81 41 215 38 500 -9z"/>
<path d="M5880 8055 c-8 -2 -124 -20 -257 -41 l-243 -38 0 -72 c0 -49 4 -73
13 -77 7 -2 94 -20 194 -38 100 -18 181 -35 179 -36 -2 -2 -44 1 -94 7 -156
17 -335 -10 -462 -72 -125 -61 -230 -198 -247 -323 l-6 -50 -19 74 c-22 92
-54 147 -123 215 -159 157 -495 207 -769 115 -119 -40 -244 -103 -280 -141
-25 -27 -28 -37 -23 -75 9 -78 85 -134 156 -113 18 5 54 23 80 39 127 82 269
114 412 93 100 -14 179 -53 246 -118 41 -41 55 -64 72 -119 12 -37 21 -84 21
-104 -1 -46 -23 -149 -38 -178 -32 -58 -1 -103 77 -111 77 -7 117 11 135 61
19 51 46 153 47 182 1 11 5 -2 10 -30 11 -69 49 -182 64 -195 21 -18 109 -24
149 -10 55 18 63 45 36 116 -32 85 -37 190 -14 266 48 160 237 263 449 245 99
-9 179 -36 271 -92 61 -37 89 -48 121 -48 96 -1 162 103 114 180 -23 37 -181
119 -304 159 l-72 23 70 -7 c127 -13 276 -8 330 11 111 39 162 126 120 207
-35 67 -136 100 -300 99 -55 -1 -107 -3 -115 -4z m301 -92 c39 -20 55 -35 57
-51 8 -54 -79 -101 -197 -109 -73 -5 -314 28 -514 70 -128 27 -110 37 143 80
154 27 236 35 331 36 118 1 129 -1 180 -26z m-1748 -253 c247 -29 418 -157
463 -348 33 -141 -4 -401 -60 -416 -37 -10 -94 -6 -98 6 -3 7 4 44 14 82 32
123 19 268 -31 350 -48 77 -148 146 -256 177 -63 18 -231 17 -305 0 -64 -16
-167 -60 -210 -91 -88 -63 -179 -25 -156 65 5 19 27 35 99 69 203 98 351 127
540 106z m1357 -21 c47 -12 135 -45 197 -74 137 -65 158 -94 110 -151 -34 -39
-71 -36 -154 14 -283 170 -650 115 -767 -116 -47 -93 -53 -249 -14 -358 17
-48 6 -64 -46 -64 -55 0 -71 15 -91 83 -43 143 -39 307 10 415 32 69 121 162
193 200 152 81 362 100 562 51z"/>
<path d="M3314 7913 c-66 -213 -153 -317 -318 -379 -116 -44 -162 -71 -230
-135 -265 -247 -174 -684 169 -820 53 -21 77 -24 207 -24 189 -1 181 7 183
-157 4 -197 45 -312 152 -429 97 -105 187 -151 327 -169 168 -21 332 35 450
154 33 34 70 78 81 99 11 20 25 37 31 37 6 0 14 -26 17 -60 14 -131 75 -252
178 -351 216 -208 554 -204 772 9 90 88 146 206 162 340 8 75 23 79 59 19 62
-107 223 -215 350 -238 84 -14 213 -7 281 17 217 74 368 304 367 559 -1 158
22 185 142 165 108 -17 251 16 349 81 109 72 195 207 218 342 24 147 -23 295
-133 413 -50 53 -78 73 -157 110 -216 103 -220 105 -277 167 -62 69 -113 164
-121 226 -5 37 -9 41 -33 41 l-27 0 -7 -117 c-12 -201 -35 -276 -145 -467 -83
-143 -93 -173 -94 -281 -2 -157 49 -298 146 -403 65 -70 76 -102 83 -232 18
-302 -146 -514 -430 -560 -91 -14 -182 1 -266 46 -78 41 -125 86 -175 169 -47
80 -66 144 -66 235 0 186 93 330 267 412 165 77 326 55 439 -61 60 -63 81 -52
63 34 -9 41 -23 62 -93 134 -119 124 -119 124 -110 302 5 107 4 149 -5 154 -7
4 -14 -2 -17 -16 -4 -13 -24 -59 -45 -102 -44 -87 -147 -198 -305 -330 -182
-152 -282 -315 -283 -464 0 -36 -3 -43 -20 -43 -10 0 -25 10 -31 23 -6 12 -28
42 -47 67 -25 31 -28 38 -10 22 l25 -23 6 56 c6 62 39 139 99 234 74 118 118
231 90 231 -4 0 -24 -16 -43 -36 -88 -94 -285 -215 -418 -259 -39 -13 -50 -20
-40 -26 10 -7 6 -8 -11 -4 -14 3 -74 9 -133 15 -60 5 -127 15 -150 21 -77 20
-171 77 -312 187 -119 93 -141 107 -143 90 -7 -38 30 -109 100 -196 90 -112
102 -135 102 -203 1 -48 -5 -65 -43 -127 -56 -94 -76 -96 -84 -9 -13 144 -77
249 -249 409 -270 252 -291 275 -343 381 -26 53 -52 97 -57 97 -7 0 -8 -49 -3
-150 6 -140 5 -153 -14 -193 -11 -24 -46 -65 -77 -91 -85 -74 -114 -119 -114
-178 0 -26 5 -48 10 -48 6 0 37 25 70 55 69 63 89 73 178 86 179 26 379 -78
460 -237 54 -106 65 -163 53 -257 -22 -166 -119 -304 -258 -370 -168 -78 -404
-31 -539 109 -123 128 -167 306 -129 517 13 75 17 82 69 137 100 105 152 256
144 419 -4 95 -6 99 -132 340 -71 134 -97 233 -104 384 -5 115 -5 117 -29 117
-14 0 -26 -7 -29 -17z m-112 -504 c121 -25 234 -115 286 -227 24 -50 27 -69
27 -162 0 -97 -2 -110 -31 -170 -39 -82 -109 -152 -194 -193 -60 -30 -72 -32
-165 -32 -97 0 -104 2 -177 38 -331 163 -283 645 72 741 68 18 113 19 182 5z
m3719 -27 c83 -40 153 -110 193 -192 29 -60 31 -73 31 -170 0 -93 -3 -111 -27
-163 -55 -118 -168 -205 -297 -229 -170 -32 -352 65 -429 229 -24 52 -27 70
-27 163 0 97 2 110 31 170 49 103 146 187 253 217 77 22 197 11 272 -25z
m-1876 -908 c264 -68 401 -363 285 -611 -33 -72 -105 -154 -168 -190 -270
-159 -608 -1 -662 310 -23 130 19 261 115 365 111 121 272 168 430 126z"/>
<path d="M4110 7386 l-21 -44 20 -59 c10 -32 22 -83 26 -113 10 -89 16 -110
30 -110 18 0 26 25 32 106 8 107 -25 264 -56 264 -5 0 -19 -20 -31 -44z"/>
<path d="M4269 7385 l-20 -46 26 -53 c17 -35 28 -78 32 -125 6 -73 21 -109 41
-97 16 10 35 114 29 163 -4 35 -1 43 14 48 10 4 23 4 29 0 30 -19 80 52 80
114 0 42 -18 48 -45 15 l-23 -29 -11 28 c-12 32 -26 35 -41 7 -6 -11 -19 -20
-30 -20 -11 0 -24 9 -30 20 -16 31 -29 24 -51 -25z"/>
<path d="M5358 7385 l-22 -45 23 -45 c13 -26 28 -79 33 -118 15 -113 17 -119
35 -115 22 4 33 46 36 138 l2 75 38 0 c48 0 73 28 83 91 9 62 -8 79 -40 39
l-23 -29 -13 25 c-19 36 -19 36 -44 4 l-23 -29 -25 27 c-14 15 -28 27 -32 27
-3 0 -16 -20 -28 -45z"/>
<path d="M5632 7391 c-17 -54 -15 -62 14 -120 15 -27 36 -85 48 -128 23 -81
43 -100 57 -53 31 107 44 141 71 183 28 43 30 52 23 102 -4 32 -11 55 -18 55
-15 0 -57 -61 -78 -114 -16 -38 -17 -39 -23 -16 -14 47 -59 130 -71 130 -7 0
-17 -17 -23 -39z"/>
<path d="M3821 5023 c-33 -38 -61 -75 -61 -84 0 -29 60 -376 69 -403 16 -40
39 -32 64 22 20 44 22 62 22 252 0 200 -7 280 -25 280 -4 0 -36 -30 -69 -67z"/>
<path d="M6567 5043 l-67 -47 5 -110 c14 -275 16 -294 39 -328 28 -43 94 -61
190 -53 75 6 129 27 151 57 13 20 14 20 49 -7 41 -31 98 -54 137 -55 14 0 42
11 61 24 34 22 35 23 47 5 16 -26 72 -25 96 1 18 20 19 20 39 2 34 -31 53 -32
90 -7 20 14 36 21 36 16 0 -5 16 -16 35 -26 27 -12 49 -15 91 -9 113 14 148
67 142 214 -3 67 -9 95 -28 129 -14 25 -30 46 -37 48 -6 2 -30 -24 -53 -57
l-42 -62 36 -37 c20 -20 36 -40 36 -44 0 -4 -32 -7 -71 -5 l-71 3 -12 35 c-7
24 -18 36 -33 38 -18 3 -24 -4 -33 -38 -9 -33 -15 -41 -32 -38 -13 2 -24 15
-32 38 -7 24 -18 36 -33 38 -18 3 -24 -4 -33 -37 -9 -34 -15 -41 -35 -41 -20
0 -26 8 -36 40 -10 31 -17 40 -35 40 -17 0 -25 -9 -34 -35 -6 -19 -16 -38 -23
-42 -17 -10 -97 -3 -126 12 -35 18 -116 114 -105 125 5 4 41 18 81 29 l71 21
4 63 c2 34 3 65 1 69 -2 3 -70 -16 -152 -43 l-150 -50 -8 -52 -9 -52 48 -56
c55 -65 53 -69 -42 -69 -44 0 -59 4 -64 16 -3 9 -6 96 -6 194 0 98 -4 181 -8
184 -5 3 -39 -16 -75 -41z"/>
<path d="M7570 5055 l-34 -35 31 -32 32 -31 35 27 c20 15 36 30 36 35 0 4 -15
21 -33 39 l-33 32 -34 -35z"/>
<path d="M7812 5019 c-72 -80 -69 -39 -22 -323 27 -164 43 -208 69 -191 18 11
38 67 51 146 19 112 1 428 -25 435 -6 2 -38 -29 -73 -67z"/>
<path d="M2640 5025 l-155 -52 -12 -66 -12 -66 66 -64 c39 -38 63 -69 59 -76
-10 -16 -180 -15 -193 2 -6 6 -13 25 -17 40 -4 15 -13 30 -21 34 -19 7 -45
-14 -45 -37 0 -30 -33 -50 -83 -50 -48 0 -56 6 -72 55 -15 44 -44 39 -69 -10
-19 -37 -25 -40 -67 -43 -41 -3 -50 1 -92 38 l-46 41 -36 -71 -36 -72 45 -48
c29 -31 44 -55 40 -64 -7 -18 -116 -99 -187 -140 -32 -18 -47 -33 -45 -44 3
-15 20 -17 117 -20 81 -2 118 1 129 10 25 21 62 110 62 150 0 32 3 37 23 36
58 -4 95 4 115 22 l22 21 22 -21 c17 -16 35 -20 88 -20 53 0 71 4 88 20 l22
21 23 -21 c20 -20 31 -21 124 -18 118 4 144 16 181 88 36 71 27 161 -24 235
-14 21 -24 38 -22 39 2 1 38 13 80 26 l77 23 7 74 c3 41 5 75 3 77 -2 2 -74
-20 -159 -49z"/>
<path d="M6888 5032 c-135 -42 -148 -48 -148 -69 0 -13 3 -23 7 -23 4 0 72 21
150 47 128 43 143 50 143 70 0 13 -1 23 -2 22 -2 -1 -69 -22 -150 -47z"/>
<path d="M7272 5047 c-29 -31 -28 -42 7 -66 l28 -20 28 29 29 30 -24 25 c-29
31 -41 31 -68 2z"/>
<path d="M5315 4960 l-29 -30 29 -30 c16 -16 34 -30 40 -30 6 0 24 14 40 30
l29 30 -29 30 c-16 17 -34 30 -40 30 -6 0 -24 -13 -40 -30z"/>
<path d="M4730 4955 l-24 -26 32 -31 31 -32 26 24 25 23 23 -21 23 -22 29 30
29 30 -24 25 c-28 30 -41 31 -65 5 l-18 -20 -22 20 c-28 26 -37 25 -65 -5z"/>
<path d="M7220 4955 l-24 -25 29 -30 29 -30 23 22 23 21 25 -23 25 -24 30 29
30 29 -29 30 -30 30 -24 -22 -24 -22 -18 20 c-24 26 -37 25 -65 -5z"/>
<path d="M8080 4879 c-17 -38 -31 -71 -29 -72 94 -59 149 -101 146 -110 -2 -7
-30 -13 -70 -15 l-67 -3 -21 36 c-26 44 -46 45 -65 0 -30 -72 -9 -162 45 -189
41 -22 146 -21 191 2 77 38 105 174 56 277 -23 50 -115 145 -141 145 -6 0 -27
-32 -45 -71z"/>
<path d="M5022 4860 c-31 -14 -47 -29 -58 -56 l-16 -37 44 -38 43 -38 -83 -1
c-81 0 -83 1 -93 28 -31 77 -51 82 -79 18 l-19 -46 -60 0 c-79 0 -203 -18
-244 -35 -51 -21 -87 -63 -87 -100 0 -49 24 -63 120 -72 77 -6 81 -8 45 -14
-60 -12 -171 -10 -220 2 -25 6 -56 22 -71 36 -25 23 -26 29 -21 84 9 107 -49
116 -86 13 -25 -72 -20 -178 12 -223 46 -65 175 -95 307 -72 91 16 139 44 164
96 27 55 25 91 -5 120 -21 22 -33 25 -90 25 -37 0 -65 4 -65 10 0 14 116 13
143 -1 12 -6 34 -23 49 -37 24 -22 33 -24 75 -18 26 3 60 15 74 26 26 19 27
19 44 0 37 -41 173 -37 225 7 17 14 30 20 30 14 0 -29 120 -58 190 -46 21 3
46 14 57 24 18 18 20 18 41 0 34 -27 95 -33 136 -14 20 10 36 21 36 26 0 4 19
-1 43 -11 56 -26 148 -26 205 0 144 65 201 278 87 326 -66 27 -136 -7 -231
-113 l-51 -57 -21 47 c-23 52 -45 55 -57 9 -10 -42 -24 -52 -70 -52 -46 0 -60
10 -70 53 -13 52 -56 45 -70 -11 -4 -15 -12 -30 -18 -34 -14 -9 -137 -11 -137
-2 0 3 11 19 25 36 45 53 25 110 -48 137 -41 16 -76 13 -125 -9z m819 -136
c19 -23 -9 -41 -76 -49 -78 -10 -86 -3 -36 33 48 35 91 41 112 16z"/>
<path d="M6230 4858 c-32 -34 -62 -127 -68 -205 l-5 -72 37 -37 c36 -36 37
-36 106 -32 60 3 73 7 99 32 36 35 53 81 53 145 0 92 -66 165 -169 184 -26 5
-37 2 -53 -15z m100 -148 c22 -11 40 -24 40 -29 0 -22 -102 -22 -116 0 -9 15
6 49 22 49 8 0 33 -9 54 -20z"/>
<path d="M3502 4812 c-12 -9 -30 -40 -40 -67 -15 -42 -22 -51 -46 -53 -54 -7
-74 5 -86 49 -9 33 -15 40 -32 37 -14 -2 -25 -15 -32 -36 -14 -41 -30 -52 -77
-52 -28 0 -46 9 -82 41 l-46 40 -36 -71 -36 -72 46 -49 c44 -47 46 -51 32 -72
-11 -18 -137 -108 -213 -153 -11 -6 -15 -16 -11 -27 5 -15 23 -17 120 -17 96
0 116 3 130 18 27 30 57 105 57 145 l0 37 54 0 c37 0 61 6 77 19 24 19 25 19
48 0 33 -27 114 -26 141 1 l20 20 31 -22 c21 -16 45 -23 75 -23 63 0 105 43
112 114 6 68 -14 135 -53 177 -28 30 -38 34 -81 34 -31 0 -57 -7 -72 -18z
m122 -94 c21 -29 21 -88 1 -88 -25 0 -50 52 -46 98 2 20 29 14 45 -10z"/>
<path d="M2315 4420 l-29 -30 34 -35 34 -35 33 32 33 32 -32 33 c-18 18 -35
33 -38 33 -3 0 -19 -14 -35 -30z"/>
<path d="M2042 4417 c-29 -31 -28 -42 6 -66 l29 -20 21 22 22 21 25 -24 25
-24 30 29 30 29 -29 30 -30 30 -24 -22 -24 -22 -18 20 c-23 26 -37 25 -63 -3z"/>
<path d="M3210 4415 l-24 -26 32 -31 31 -32 24 22 23 22 22 -22 22 -23 32 32
32 32 -24 26 c-28 30 -41 31 -65 5 l-18 -20 -22 20 c-28 26 -37 25 -65 -5z"/>
<path d="M3361 4007 c-23 -29 -47 -73 -56 -96 -19 -56 -19 -145 1 -204 26 -78
110 -158 136 -131 4 3 -6 31 -20 62 -25 52 -27 68 -27 177 1 108 3 126 27 177
14 31 24 59 20 62 -17 17 -46 0 -81 -47z"/>
<path d="M3843 4010 l-43 -48 20 -123 c24 -146 34 -176 55 -159 25 21 38 111
33 239 -2 66 -8 125 -14 130 -5 6 -26 -10 -51 -39z"/>
<path d="M6494 4046 c-3 -8 4 -32 15 -53 48 -95 50 -236 4 -351 -14 -35 -22
-66 -19 -69 14 -14 59 12 91 54 43 57 69 139 63 202 -6 62 -47 147 -92 194
-40 40 -54 45 -62 23z"/>
<path d="M4895 4018 c-49 -17 -92 -32 -94 -34 -2 -2 -7 -22 -11 -46 -8 -40 -6
-45 31 -89 21 -26 39 -50 39 -53 0 -3 -39 -6 -88 -6 -98 0 -132 14 -132 55 0
27 -17 42 -32 27 -18 -18 -28 -86 -17 -125 17 -64 53 -78 181 -75 96 3 109 5
131 26 l25 24 29 -21 c39 -29 93 -37 129 -18 25 13 32 13 49 1 24 -18 76 -18
100 0 16 12 22 12 42 -1 33 -22 125 -13 163 16 l30 22 28 -21 c39 -29 90 -35
134 -17 30 13 39 23 48 59 7 23 9 62 6 86 -6 45 -31 102 -45 102 -5 0 -21 -18
-36 -41 l-27 -41 29 -30 28 -30 -55 7 c-30 4 -62 13 -71 19 -22 16 -82 86 -78
91 2 2 27 12 54 22 49 18 50 19 56 68 3 28 5 51 4 52 -1 2 -46 -12 -100 -30
-68 -23 -101 -39 -106 -53 -13 -33 -10 -81 6 -94 9 -7 25 -26 36 -42 l20 -28
-59 0 c-58 0 -60 1 -71 30 -13 38 -29 38 -43 -1 -9 -28 -14 -30 -51 -27 -34 2
-42 7 -47 27 -8 36 -27 36 -45 2 -14 -27 -21 -31 -58 -31 -38 0 -48 5 -95 53
l-53 53 56 18 c60 19 60 19 69 84 7 51 10 50 -109 10z"/>
<path d="M6246 4022 l-38 -26 6 -93 c8 -109 9 -108 -101 -115 -78 -6 -117 -24
-135 -63 -14 -32 4 -55 43 -55 16 0 29 -4 29 -10 0 -20 -130 -4 -153 19 -6 6
-14 32 -17 58 -3 25 -10 48 -17 50 -23 8 -47 -48 -48 -108 0 -47 4 -62 24 -83
58 -61 226 -62 287 -1 28 28 32 76 8 99 -8 9 -11 16 -6 16 5 0 15 -7 22 -15
14 -17 81 -20 97 -4 8 8 17 8 31 0 11 -6 41 -11 67 -11 35 0 51 6 70 25 22 21
25 33 25 91 0 62 -21 134 -40 134 -10 0 -60 -65 -60 -78 0 -5 9 -17 20 -27 23
-21 18 -35 -14 -35 -40 0 -46 17 -46 142 0 65 -3 118 -7 117 -5 0 -25 -12 -47
-27z m-153 -309 c-13 -2 -33 -2 -45 0 -13 2 -3 4 22 4 25 0 35 -2 23 -4z"/>
<path d="M4355 4020 c-18 -20 -18 -21 4 -43 21 -21 23 -21 32 -4 10 18 12 18
30 1 19 -17 21 -17 42 4 l21 22 -21 22 c-19 18 -24 19 -38 8 -12 -10 -19 -10
-27 -2 -16 16 -22 15 -43 -8z"/>
<path d="M5585 4020 c-17 -19 -17 -21 0 -40 16 -18 20 -19 35 -5 14 13 18 13
31 -1 14 -13 17 -12 34 6 17 19 17 21 0 40 -16 18 -20 19 -35 5 -14 -13 -18
-13 -31 1 -14 13 -17 12 -34 -6z"/>
<path d="M5215 3970 c-17 -19 -17 -21 0 -40 10 -11 23 -20 30 -20 7 0 20 9 30
20 17 19 17 21 0 40 -10 11 -23 20 -30 20 -7 0 -20 -9 -30 -20z"/>
<path d="M4386 3897 c-31 -41 -32 -49 -6 -72 26 -24 17 -35 -30 -35 -39 0 -39
0 -33 35 14 89 -86 84 -133 -6 -17 -34 -37 -33 -87 3 -16 11 -30 18 -32 16 -1
-1 -12 -21 -23 -43 l-20 -40 30 -32 c18 -18 27 -36 23 -43 -4 -7 -38 -32 -76
-56 -92 -60 -91 -74 5 -74 69 0 76 2 95 27 12 14 24 43 27 65 5 28 11 38 25
38 11 0 19 -4 19 -10 0 -5 14 -25 31 -45 52 -59 127 -43 117 25 -5 30 -4 30
44 30 39 0 54 5 73 25 21 21 25 33 25 89 0 62 -23 136 -41 136 -5 0 -19 -15
-33 -33z m-118 -89 c-3 -7 -15 -14 -29 -16 -23 -2 -23 -2 -5 13 24 18 39 20
34 3z m-3 -137 c10 -17 -11 -21 -31 -6 -18 14 -18 14 3 15 12 0 24 -4 28 -9z"/>
<path d="M3585 3890 c-35 -38 11 -79 48 -42 20 21 20 22 2 42 -22 25 -27 25
-50 0z"/>
<path d="M3713 3848 c-6 -7 -18 -28 -27 -46 -17 -32 -16 -34 9 -63 45 -54 32
-69 -64 -69 -73 0 -96 16 -96 67 0 31 -3 38 -20 38 -36 0 -58 -106 -33 -159
17 -39 55 -58 122 -63 101 -7 163 40 173 131 9 78 -37 197 -64 164z"/>
<path d="M6346 3632 c-15 -18 -15 -20 3 -36 16 -15 22 -15 39 -5 16 10 24 10
35 1 11 -9 18 -8 32 8 18 19 18 22 2 38 -15 14 -20 15 -38 3 -15 -9 -24 -10
-32 -2 -15 15 -21 14 -41 -7z"/>
<path d="M5054 3619 c-17 -18 -17 -21 -1 -37 13 -13 21 -14 35 -6 12 8 22 8
34 1 18 -12 48 6 48 29 0 20 -34 36 -49 21 -9 -9 -16 -9 -30 0 -16 10 -22 8
-37 -8z"/>
<path d="M6376 3572 c-15 -18 -15 -20 4 -37 20 -18 21 -18 43 4 22 22 22 22 3
37 -25 18 -29 18 -50 -4z"/>
</g>
</svg>
