<?xml version="1.0" encoding="UTF-8"?>
<svg version="1.1" xmlns="http://www.w3.org/2000/svg" width="200" height="200">
<path d="M0 0 C66 0 132 0 200 0 C200 66 200 132 200 200 C134 200 68 200 0 200 C0 134 0 68 0 0 Z " fill="#1F4E77" transform="translate(0,0)"/>
<path d="M0 0 C4.38589238 2.78366602 7.47821119 6.42682106 9.1171875 11.34375 C9.82275698 18.14745567 9.93508992 24.02143034 5.71484375 29.65234375 C0.98954722 34.6549193 -3.0588422 36.63708917 -10.0078125 36.84375 C-16.25166834 36.55315545 -19.86893119 35.12345907 -24.5703125 30.96875 C-29.60617029 25.25237088 -30.54246204 21.12078314 -30.36328125 13.578125 C-29.51662179 7.87866135 -26.60327387 4.57491976 -22.25390625 1.0078125 C-14.99410353 -4.12317589 -7.70035712 -3.73027681 0 0 Z " fill="#204F75" transform="translate(171.8828125,80.65625)"/>
<path d="M0 0 C0.66 0 1.32 0 2 0 C5.3 7.26 8.6 14.52 12 22 C12.33 15.07 12.66 8.14 13 1 C14.98 1 16.96 1 19 1 C19 13.54 19 26.08 19 39 C16.69 39 14.38 39 12 39 C9.525 33.06 9.525 33.06 7 27 C1.72 26.67 -3.56 26.34 -9 26 C-9.45375 27.423125 -9.9075 28.84625 -10.375 30.3125 C-11.33944209 33.3373411 -12.20931427 35.3139714 -14 38 C-14.99 37.67 -15.98 37.34 -17 37 C-11.39 24.79 -5.78 12.58 0 0 Z " fill="#37BDF2" transform="translate(28,78)"/>
<path d="M0 0 C4.38589238 2.78366602 7.47821119 6.42682106 9.1171875 11.34375 C9.82275698 18.14745567 9.93508992 24.02143034 5.71484375 29.65234375 C0.98954722 34.6549193 -3.0588422 36.63708917 -10.0078125 36.84375 C-16.25166834 36.55315545 -19.86893119 35.12345907 -24.5703125 30.96875 C-29.60617029 25.25237088 -30.54246204 21.12078314 -30.36328125 13.578125 C-29.51662179 7.87866135 -26.60327387 4.57491976 -22.25390625 1.0078125 C-14.99410353 -4.12317589 -7.70035712 -3.73027681 0 0 Z M-19.8828125 3.34375 C-23.78504878 9.85058896 -23.65018306 15.94832165 -22.8828125 23.34375 C-21.70141543 27.34838313 -19.86449134 30.18027878 -17.1953125 33.34375 C-13.42597091 34.97373555 -9.90661854 35.08295874 -5.8828125 34.34375 C-2.33573047 32.58895678 -0.2734396 30.28742989 1.25390625 26.59765625 C3.03979309 19.86623661 3.77276353 11.35130079 0.2421875 5.09375 C-2.29984242 1.54633158 -2.29984242 1.54633158 -6.0546875 -0.2109375 C-11.95248976 -0.94369475 -15.33507964 -0.98214224 -19.8828125 3.34375 Z " fill="#66A162" transform="translate(171.8828125,80.65625)"/>
<path d="M0 0 C1.98 0 3.96 0 6 0 C7.71383583 3.66393183 9.42269839 7.33013651 11.12695312 10.99853516 C11.70761521 12.24656893 12.28964069 13.49396929 12.87304688 14.74072266 C13.71060247 16.5312114 14.54287966 18.3241663 15.375 20.1171875 C16.12910156 21.73536377 16.12910156 21.73536377 16.8984375 23.38623047 C18 26 18 26 18 28 C18.66 28 19.32 28 20 28 C20.17015625 27.46052734 20.3403125 26.92105469 20.515625 26.36523438 C22.37997274 20.59864816 24.55808212 15.04480601 27 9.5 C27.34289062 8.69046875 27.68578125 7.8809375 28.0390625 7.046875 C28.54566406 5.89445312 28.54566406 5.89445312 29.0625 4.71875 C29.36285156 4.02716797 29.66320312 3.33558594 29.97265625 2.62304688 C31 1 31 1 34 0 C33.32036503 4.53473955 31.64717328 8.52878136 29.83984375 12.70703125 C29.53051407 13.43242599 29.22118439 14.15782074 28.90248108 14.90519714 C27.91861847 17.20957108 26.92816731 19.51104444 25.9375 21.8125 C25.26714053 23.37937015 24.59721384 24.94642552 23.92773438 26.51367188 C22.2901605 30.34461122 20.64667391 34.17296387 19 38 C18.01 38 17.02 38 16 38 C13.87526585 33.39494838 11.75756677 28.7867513 9.64624023 24.17553711 C8.92744938 22.60825244 8.20676497 21.04183472 7.48413086 19.47631836 C6.44402549 17.2221602 5.41083483 14.9649422 4.37890625 12.70703125 C4.05596085 12.01100296 3.73301544 11.31497467 3.40028381 10.59785461 C1.80455194 7.08836854 0.54752176 3.82617279 0 0 Z " fill="#E2B920" transform="translate(107,79)"/>
<path d="M0 0 C1.98 0 3.96 0 6 0 C10.35803199 9.32206252 14.69669027 18.65251768 19 28 C21.50890923 23.29434998 23.81499326 18.55712257 25.75 13.5859375 C26.050271 12.82015381 26.35054199 12.05437012 26.65991211 11.26538086 C27.25738746 9.72442132 27.84176902 8.17831507 28.41235352 6.62719727 C29.25390625 4.46484375 29.25390625 4.46484375 31 1 C33.10913086 0.28344727 33.10913086 0.28344727 35 0 C29.9788391 12.81526194 24.69104459 25.4675933 19 38 C16 37 16 37 14.29833984 33.9206543 C13.67480556 32.56019373 13.06311722 31.1942653 12.4609375 29.82421875 C12.13461334 29.10265091 11.80828918 28.38108307 11.47207642 27.63764954 C10.78309243 26.10903532 10.09917087 24.57813084 9.41992188 23.04516602 C8.38181527 20.70287735 7.32913235 18.36760959 6.2734375 16.03320312 C5.60590423 14.547264 4.93920983 13.06094769 4.2734375 11.57421875 C3.95990326 10.87616623 3.64636902 10.17811371 3.32333374 9.45890808 C1.94015006 6.33050435 0.76548378 3.33090043 0 0 Z " fill="#0EA9E4" transform="translate(56,79)"/>
<path d="M0 0 C3.04196068 3.80245085 4.8409417 6.34729528 6.75 10.625 C7.17796875 11.56601563 7.6059375 12.50703125 8.046875 13.4765625 C9 16 9 16 9 19 C9.99 19.33 10.98 19.66 12 20 C11.67 20.99 11.34 21.98 11 23 C10.67 22.34 10.34 21.68 10 21 C7.28553021 20.68758545 4.66090639 20.48663408 1.9375 20.375 C1.17888672 20.33632812 0.42027344 20.29765625 -0.36132812 20.2578125 C-2.24047195 20.16326438 -4.12020336 20.08053244 -6 20 C-6.29003906 20.92232422 -6.29003906 20.92232422 -6.5859375 21.86328125 C-6.84632812 22.67152344 -7.10671875 23.47976562 -7.375 24.3125 C-7.63023438 25.11300781 -7.88546875 25.91351563 -8.1484375 26.73828125 C-9 29 -9 29 -11 32 C-11.99 31.67 -12.98 31.34 -14 31 C-9.38 20.77 -4.76 10.54 0 0 Z " fill="#40B9EA" transform="translate(25,84)"/>
<path d="M0 0 C1.98 0 3.96 0 6 0 C6 12.21 6 24.42 6 37 C4.02 37 2.04 37 0 37 C0 24.79 0 12.58 0 0 Z " fill="#B7AE44" transform="translate(96,79)"/>
<path d="M0 0 C2.375 0.3125 2.375 0.3125 5 1 C5.66 1.99 6.32 2.98 7 4 C7.556875 3.855625 8.11375 3.71125 8.6875 3.5625 C11.11384195 2.97230872 13.54906345 2.476571 16 2 C15.29875 2.495 14.5975 2.99 13.875 3.5 C9.21499441 7.55217878 5.39352096 10.89266939 4.5859375 17.26953125 C4.55418214 21.98520181 4.66469803 26.45335198 6 31 C4.68 31 3.36 31 2 31 C1.67 29.68 1.34 28.36 1 27 C1.66 27 2.32 27 3 27 C2.34 24.69 1.68 22.38 1 20 C-2.08759559 20.64067976 -2.08759559 20.64067976 -2.94921875 22.84765625 C-3.19285156 23.57855469 -3.43648437 24.30945313 -3.6875 25.0625 C-3.93886719 25.79597656 -4.19023437 26.52945313 -4.44921875 27.28515625 C-4.63097656 27.85105469 -4.81273437 28.41695312 -5 29 C-5.66 29 -6.32 29 -7 29 C-7.12375 29.804375 -7.2475 30.60875 -7.375 31.4375 C-7.684375 32.7059375 -7.684375 32.7059375 -8 34 C-8.99 34.495 -8.99 34.495 -10 35 C-7.66737643 27.63014946 -4.8202139 20.55561321 -1.8125 13.4375 C-1.11737305 11.78137695 -1.11737305 11.78137695 -0.40820312 10.09179688 C0.72493853 7.39328426 1.8610628 4.69607042 3 2 C-0.18173792 4.93310394 -1.58292757 8.23747848 -3.1875 12.1875 C-3.46013672 12.84169922 -3.73277344 13.49589844 -4.01367188 14.16992188 C-4.68239798 15.77721092 -5.34209925 17.38824962 -6 19 C-6.33 19 -6.66 19 -7 19 C-7 17.02 -7 15.04 -7 13 C-6.34 13 -5.68 13 -5 13 C-4.89042969 12.39671875 -4.78085938 11.7934375 -4.66796875 11.171875 C-3.09314587 3.23374341 -3.09314587 3.23374341 0 0 Z " fill="#204F72" transform="translate(138,77)"/>
<path d="M0 0 C1.98 0 3.96 0 6 0 C6 12.54 6 25.08 6 38 C3.69 38 1.38 38 -1 38 C-1 37.67 -1 37.34 -1 37 C0.98 37 2.96 37 5 37 C4.55527344 36.25621094 4.11054687 35.51242188 3.65234375 34.74609375 C-2.29135871 23.27840359 -1.24735481 12.60056338 0 0 Z " fill="#4098BE" transform="translate(41,79)"/>
<path d="M0 0 C4 0 4 0 5.73168945 0.97583008 C7.76706206 4.22419857 7.36536559 7.67498591 7.29296875 11.38671875 C7.28872391 12.20372757 7.28447906 13.02073639 7.28010559 13.86250305 C7.26331691 16.47117107 7.22566519 19.07906562 7.1875 21.6875 C7.17245337 23.45636905 7.15876492 25.22525021 7.14648438 26.99414062 C7.11341286 31.32972496 7.0616299 35.66473136 7 40 C8.65 40 10.3 40 12 40 C12 40.33 12 40.66 12 41 C6.58248731 41.36116751 6.58248731 41.36116751 4.3190918 39.95776367 C2.30962402 36.97536091 2.63099827 33.95679474 2.70703125 30.48828125 C2.71127609 29.76005661 2.71552094 29.03183197 2.71989441 28.28153992 C2.73667267 25.95814873 2.77432145 23.6356285 2.8125 21.3125 C2.82754803 19.73634066 2.84123623 18.16016771 2.85351562 16.58398438 C2.88657315 12.72232123 2.93834806 8.86130822 3 5 C2.01 5.495 2.01 5.495 1 6 C1 5.34 1 4.68 1 4 C0.34 4 -0.32 4 -1 4 C-1.66 5.65 -2.32 7.3 -3 9 C-3.33 9 -3.66 9 -4 9 C-4 7.35 -4 5.7 -4 4 C-2.68 3.34 -1.36 2.68 0 2 C0 1.34 0 0.68 0 0 Z " fill="#3C5E64" transform="translate(89,76)"/>
<path d="M0 0 C2 2 2 2 2 5 C2.66 5 3.32 5 4 5 C4 6.32 4 7.64 4 9 C4.66 9 5.32 9 6 9 C7.48320272 12.83887763 8.22419163 15.06204091 7 19 C5.82866942 16.54379149 4.66278278 14.08525083 3.5 11.625 C3.16613281 10.92632812 2.83226563 10.22765625 2.48828125 9.5078125 C0 4.2265625 0 4.2265625 0 2 C-1.98 2 -3.96 2 -6 2 C-5.44119141 3.26457031 -5.44119141 3.26457031 -4.87109375 4.5546875 C-4.39800781 5.65039062 -3.92492187 6.74609375 -3.4375 7.875 C-2.96183594 8.96554688 -2.48617187 10.05609375 -1.99609375 11.1796875 C-1.66738281 12.11039063 -1.33867188 13.04109375 -1 14 C-1.33 14.66 -1.66 15.32 -2 16 C-2.99 16 -3.98 16 -5 16 C-6 9.25 -6 9.25 -6 7 C-6.66 7 -7.32 7 -8 7 C-8.33 6.34 -8.66 5.68 -9 5 C-9.33 16.22 -9.66 27.44 -10 39 C-10.33 39 -10.66 39 -11 39 C-11 26.79 -11 14.58 -11 2 C-12.98 2 -14.96 2 -17 2 C-17 1.67 -17 1.34 -17 1 C-5.22613065 -0.32663317 -5.22613065 -0.32663317 0 0 Z " fill="#375250" transform="translate(113,77)"/>
<path d="M0 0 C0.99 0.33 1.98 0.66 3 1 C1.36506436 4.82318088 -0.27071456 8.64599957 -1.90722656 12.46850586 C-2.46213771 13.76495963 -3.01683089 15.06150673 -3.57128906 16.3581543 C-6.66564571 23.59414535 -9.78048839 30.81861366 -13 38 C-13.99 37.67 -14.98 37.34 -16 37 C-17.31157516 34.37684968 -16.89649988 32.76966564 -16.5625 29.875 C-16.40974609 28.50988281 -16.40974609 28.50988281 -16.25390625 27.1171875 C-16.17011719 26.41851562 -16.08632812 25.71984375 -16 25 C-15.34 25 -14.68 25 -14 25 C-13.67 25.99 -13.34 26.98 -13 28 C-9.29950555 21.05944128 -6.24705455 13.91986942 -3.32397461 6.62719727 C-1.09664092 1.09664092 -1.09664092 1.09664092 0 0 Z " fill="#78A787" transform="translate(88,79)"/>
<path d="M0 0 C0.66 0 1.32 0 2 0 C1.32036503 4.53473955 -0.35282672 8.52878136 -2.16015625 12.70703125 C-2.46948593 13.43242599 -2.77881561 14.15782074 -3.09751892 14.90519714 C-4.08138153 17.20957108 -5.07183269 19.51104444 -6.0625 21.8125 C-6.73285947 23.37937015 -7.40278616 24.94642552 -8.07226562 26.51367188 C-9.7098395 30.34461122 -11.35332609 34.17296387 -13 38 C-13.99 38 -14.98 38 -16 38 C-16.99 35.03 -17.98 32.06 -19 29 C-16 30 -16 30 -14.8125 32.0625 C-14.544375 32.701875 -14.27625 33.34125 -14 34 C-14 32.02 -14 30.04 -14 28 C-13.34 28 -12.68 28 -12 28 C-11.83129395 27.46052734 -11.66258789 26.92105469 -11.48876953 26.36523438 C-9.624036 20.5704846 -7.38094472 15.04428794 -4.875 9.5 C-4.51535156 8.69046875 -4.15570313 7.8809375 -3.78515625 7.046875 C-1.1381079 1.1381079 -1.1381079 1.1381079 0 0 Z " fill="#BEAE4C" transform="translate(139,79)"/>
<path d="M0 0 C0.99 0.33 1.98 0.66 3 1 C5.28388201 5.80817266 5.75188049 10.77221916 5 16 C4.14665737 18.18934512 3.1580704 20.14910545 1.97265625 22.17578125 C0.91043499 23.98329999 0.91043499 23.98329999 0.49609375 26.10546875 C0 28 0 28 -2 30 C-4.125 30.625 -4.125 30.625 -6 31 C-5.67 31.99 -5.34 32.98 -5 34 C-7.93832645 33.88618103 -10.8751065 33.75943449 -13.8125 33.625 C-15.06256836 33.57859375 -15.06256836 33.57859375 -16.33789062 33.53125 C-17.14033203 33.49257812 -17.94277344 33.45390625 -18.76953125 33.4140625 C-19.50792236 33.3826416 -20.24631348 33.3512207 -21.00708008 33.31884766 C-23 33 -23 33 -26 31 C-25.67 30.34 -25.34 29.68 -25 29 C-24.01 29.33 -23.02 29.66 -22 30 C-15.13500896 30.711925 -9.30059482 30.78794612 -3.625 26.53125 C0.1514467 22.97267523 1.77245123 20.17046515 2.3046875 15.09375 C2.42439214 9.7203415 2.21609496 4.98621367 0 0 Z " fill="#255661" transform="translate(178,86)"/>
<path d="M0 0 C3.30616284 3.80208727 7 9.83581485 7 15 C2.71 15 -1.58 15 -6 15 C-4.32819664 9.74576086 -2.62305301 4.87138415 0 0 Z " fill="#176495" transform="translate(27,87)"/>
<path d="M0 0 C1.65 0.33 3.3 0.66 5 1 C5 2.65 5 4.3 5 6 C4.34 6 3.68 6 3 6 C2.855625 6.7425 2.71125 7.485 2.5625 8.25 C2.09812508 10.52027739 1.58136431 12.75759479 1 15 C0.34 15 -0.32 15 -1 15 C-1.1546875 15.9590625 -1.1546875 15.9590625 -1.3125 16.9375 C-2.23903073 21.06477326 -3.61660629 25.00642949 -5 29 C-5.66 29 -6.32 29 -7 29 C-7.12375 29.804375 -7.2475 30.60875 -7.375 31.4375 C-7.684375 32.7059375 -7.684375 32.7059375 -8 34 C-8.99 34.495 -8.99 34.495 -10 35 C-7.66737643 27.63014946 -4.8202139 20.55561321 -1.8125 13.4375 C-1.11737305 11.78137695 -1.11737305 11.78137695 -0.40820312 10.09179688 C0.72493853 7.39328426 1.8610628 4.69607042 3 2 C-0.18173792 4.93310394 -1.58292757 8.23747848 -3.1875 12.1875 C-3.46013672 12.84169922 -3.73277344 13.49589844 -4.01367188 14.16992188 C-4.68239798 15.77721092 -5.34209925 17.38824962 -6 19 C-6.33 19 -6.66 19 -7 19 C-7 17.02 -7 15.04 -7 13 C-6.34 13 -5.68 13 -5 13 C-4.89042969 12.39671875 -4.78085938 11.7934375 -4.66796875 11.171875 C-3.09314587 3.23374341 -3.09314587 3.23374341 0 0 Z " fill="#3C574A" transform="translate(138,77)"/>
<path d="M0 0 C3.37924455 2.36547118 4.76596794 3.69662143 5.5078125 7.828125 C5.79601923 15.62892061 5.79601923 15.62892061 3.90234375 18.890625 C2.5625 20.25 2.5625 20.25 0 22 C-0.33 22 -0.66 22 -1 22 C-1.02895225 18.70835171 -1.0467823 15.41673601 -1.0625 12.125 C-1.07506836 10.71927734 -1.07506836 10.71927734 -1.08789062 9.28515625 C-1.09111328 8.38925781 -1.09433594 7.49335937 -1.09765625 6.5703125 C-1.10289307 5.74289551 -1.10812988 4.91547852 -1.11352539 4.06298828 C-1 2 -1 2 0 0 Z " fill="#6DAA4F" transform="translate(176,87)"/>
<path d="M0 0 C1.06140282 3.18420845 0.95892549 4.08459109 0.22265625 7.23046875 C-0.05288086 8.43413086 -0.05288086 8.43413086 -0.33398438 9.66210938 C-0.53314453 10.49548828 -0.73230469 11.32886719 -0.9375 12.1875 C-1.13279297 13.03248047 -1.32808594 13.87746094 -1.52929688 14.74804688 C-2.01241264 16.833693 -2.50527904 18.91707614 -3 21 C-3.66 21 -4.32 21 -5 21 C-7.9757866 16.5363201 -7.61978683 12.23458514 -7 7 C-5.96685482 4.36878789 -4.96069084 3.12875006 -3 1 C-2.01 0.67 -1.02 0.34 0 0 Z " fill="#7EAE3D" transform="translate(149,84)"/>
<path d="M0 0 C3.57412894 4.28895472 7.21190221 8.96417653 6.80859375 14.7421875 C6.30961015 17.20570093 5.72927974 19.59534789 5 22 C2.9105012 18.8657518 1.43554114 15.73890554 -0.125 12.3125 C-0.66382812 11.13300781 -1.20265625 9.95351562 -1.7578125 8.73828125 C-2.16773438 7.83464844 -2.57765625 6.93101563 -3 6 C-2.34 5.67 -1.68 5.34 -1 5 C-0.67 5.66 -0.34 6.32 0 7 C0 4.69 0 2.38 0 0 Z " fill="#22A2CD" transform="translate(66,90)"/>
<path d="M0 0 C0.99 0.33 1.98 0.66 3 1 C3.87890625 2.92578125 3.87890625 2.92578125 4.5625 5.3125 C5.46289039 8.39010557 6.37457302 11.22143991 8 14 C8.66 14.33 9.32 14.66 10 15 C9.90460937 14.39671875 9.80921875 13.7934375 9.7109375 13.171875 C9.60007812 12.37265625 9.48921875 11.5734375 9.375 10.75 C9.25898437 9.96109375 9.14296875 9.1721875 9.0234375 8.359375 C9 6 9 6 11 2 C11 9.26 11 16.52 11 24 C8.78889114 21.05185486 7.39607951 18.98757704 5.95703125 15.7421875 C5.60576172 14.95199219 5.25449219 14.16179687 4.89257812 13.34765625 C4.53615234 12.53167969 4.17972656 11.71570313 3.8125 10.875 C3.44447266 10.05128906 3.07644531 9.22757813 2.69726562 8.37890625 C0 2.26376971 0 2.26376971 0 0 Z " fill="#10517C" transform="translate(30,78)"/>
<path d="M0 0 C0.66 0.33 1.32 0.66 2 1 C1.67 1.66 1.34 2.32 1 3 C0.34 3 -0.32 3 -1 3 C-1 4.65 -1 6.3 -1 8 C-1.66 8 -2.32 8 -3 8 C-3.37656648 16.4936661 -3.33340139 22.30854619 1.6875 29.375 C5.06049994 31.74521618 7.91167769 31.72744518 12 32 C12 32.33 12 32.66 12 33 C7.55258152 33.34881714 4.11647174 33.60677812 0.125 31.4375 C-5.2740437 25.24447929 -5.57468244 19.43609068 -5.4375 11.40234375 C-4.83137821 6.68866448 -3.0868381 3.54986381 0 0 Z " fill="#275A59" transform="translate(154,82)"/>
<path d="M0 0 C2 2 2 2 2 5 C2.66 5 3.32 5 4 5 C6.14336161 8.4766338 6.21277626 11.21229195 6.125 15.25 C6.10695313 16.32765625 6.08890625 17.4053125 6.0703125 18.515625 C6.04710937 19.33546875 6.02390625 20.1553125 6 21 C3.69 21 1.38 21 -1 21 C-1 20.67 -1 20.34 -1 20 C0.98 20 2.96 20 5 20 C4.55527344 19.05898437 4.11054687 18.11796875 3.65234375 17.1484375 C3.07992414 15.89099115 2.50835427 14.63315775 1.9375 13.375 C1.49567383 12.44880859 1.49567383 12.44880859 1.04492188 11.50390625 C-0.86002584 7.24578783 -1.21221906 4.50252793 0 0 Z " fill="#3088B1" transform="translate(41,96)"/>
<path d="M0 0 C1.98 0 3.96 0 6 0 C6.99 2.97 7.98 5.94 9 9 C7.68 7.68 6.36 6.36 5 5 C5.33 7.64 5.66 10.28 6 13 C6.66 13 7.32 13 8 13 C8.33 15.31 8.66 17.62 9 20 C6.31528702 16.71868414 4.58335696 13.28091547 2.8125 9.4375 C2.28269531 8.30183594 1.75289063 7.16617188 1.20703125 5.99609375 C0 3 0 3 0 0 Z " fill="#DBB934" transform="translate(107,79)"/>
<path d="M0 0 C0 0.66 0 1.32 0 2 C-0.66386719 1.96519531 -1.32773438 1.93039063 -2.01171875 1.89453125 C-9.06617012 1.57062121 -9.06617012 1.57062121 -15 5 C-16.82629794 8.06680799 -16.82629794 8.06680799 -18 11 C-19 8 -19 8 -19 6 C-19.66 5.67 -20.32 5.34 -21 5 C-14.51261263 -0.56061774 -8.4202898 -2.80676327 0 0 Z " fill="#649D69" transform="translate(168,79)"/>
<path d="M0 0 C0.87527344 0.06703125 1.75054687 0.1340625 2.65234375 0.203125 C5.39115574 0.82457342 6.39241171 1.52321562 8.0625 3.75 C8.0625 4.41 8.0625 5.07 8.0625 5.75 C6.4846875 5.440625 6.4846875 5.440625 4.875 5.125 C1.06625113 4.75036896 -0.60585752 5.03369933 -3.9375 6.75 C-3.9375 5.43 -3.9375 4.11 -3.9375 2.75 C-4.9275 2.75 -5.9175 2.75 -6.9375 2.75 C-6.9375 2.09 -6.9375 1.43 -6.9375 0.75 C-4.38134834 -0.52807583 -2.83395757 -0.24968789 0 0 Z " fill="#23526D" transform="translate(162.9375,80.25)"/>
<path d="M0 0 C3.3 0 6.6 0 10 0 C10.33 1.98 10.66 3.96 11 6 C10.34 6 9.68 6 9 6 C8.67 5.34 8.34 4.68 8 4 C7.67 15.22 7.34 26.44 7 38 C6.67 38 6.34 38 6 38 C6 25.79 6 13.58 6 1 C4.02 1 2.04 1 0 1 C0 0.67 0 0.34 0 0 Z " fill="#284650" transform="translate(96,78)"/>
<path d="M0 0 C0.33 0 0.66 0 1 0 C1.33801152 2.54112232 1.67053379 5.08276746 2 7.625 C2.09539063 8.33785156 2.19078125 9.05070312 2.2890625 9.78515625 C2.81632285 13.89025467 3.09732609 17.85147535 3 22 C3 22.99 3 23.98 3 25 C2.01 25.99 1.02 26.98 0 28 C0 18.76 0 9.52 0 0 Z " fill="#10466A" transform="translate(47,80)"/>
<path d="M0 0 C0.66 0 1.32 0 2 0 C2.66 0.99 3.32 1.98 4 3 C4.66 2.67 5.32 2.34 6 2 C6 2.66 6 3.32 6 4 C6.66 4 7.32 4 8 4 C8 2.68 8 1.36 8 0 C8.66 0 9.32 0 10 0 C9.52269162 1.4589426 9.04308958 2.91713496 8.5625 4.375 C8.29566406 5.18710938 8.02882812 5.99921875 7.75390625 6.8359375 C7 9 7 9 6 11 C5.34 11 4.68 11 4 11 C3.32880451 9.5437455 2.66318193 8.08492133 2 6.625 C1.62875 5.81289062 1.2575 5.00078125 0.875 4.1640625 C0 2 0 2 0 0 Z " fill="#304846" transform="translate(121,96)"/>
<path d="M0 0 C1.485 0.99 1.485 0.99 3 2 C3 2.99 3 3.98 3 5 C3.99 5.33 4.98 5.66 6 6 C8.0338303 9.19601904 9.10215224 11.06019937 8.6875 14.875 C8.460625 15.57625 8.23375 16.2775 8 17 C4.86907084 15.43453542 4.30371249 12.75160269 2.875 9.625 C2.33617188 8.46226563 1.79734375 7.29953125 1.2421875 6.1015625 C0 3 0 3 0 0 Z " fill="#134B69" transform="translate(68,91)"/>
<path d="M0 0 C0.66 0 1.32 0 2 0 C3.97387813 4.76052962 4.0070238 7.96488101 3 13 C2.01 12.67 1.02 12.34 0 12 C-1.31157516 9.37684968 -0.89649988 7.76966564 -0.5625 4.875 C-0.46066406 3.96492188 -0.35882813 3.05484375 -0.25390625 2.1171875 C-0.17011719 1.41851562 -0.08632812 0.71984375 0 0 Z " fill="#53AAA2" transform="translate(72,104)"/>
<path d="M0 0 C0.66 0 1.32 0 2 0 C1.34496718 4.05819183 0.05440879 7.53971282 -1.5625 11.3125 C-2.01753906 12.38113281 -2.47257813 13.44976562 -2.94140625 14.55078125 C-3.46541016 15.76314453 -3.46541016 15.76314453 -4 17 C-4.99 16.34 -5.98 15.68 -7 15 C-6.02373969 12.68623321 -5.04414868 10.37397937 -4.0625 8.0625 C-3.78470703 7.40314453 -3.50691406 6.74378906 -3.22070312 6.06445312 C-1.11328125 1.11328125 -1.11328125 1.11328125 0 0 Z " fill="#ABAC50" transform="translate(139,79)"/>
<path d="M0 0 C1.15837573 3.47512718 0.77265943 5.13670286 0.0625 8.6875 C-0.13214844 9.68136719 -0.32679688 10.67523438 -0.52734375 11.69921875 C-0.68332031 12.45847656 -0.83929688 13.21773437 -1 14 C-1.33 14 -1.66 14 -2 14 C-2 11.03 -2 8.06 -2 5 C-2.66 5 -3.32 5 -4 5 C-4 5.99 -4 6.98 -4 8 C-4.66 8 -5.32 8 -6 8 C-6.33 8.99 -6.66 9.98 -7 11 C-6.52517335 6.82152545 -5.95940617 4.07322948 -3 1 C-2.01 0.67 -1.02 0.34 0 0 Z " fill="#77A850" transform="translate(149,84)"/>
<path d="M0 0 C1.73662334 3.22515763 2.8905928 6.51329166 4 10 C3.01 10.495 3.01 10.495 2 11 C-3.57142857 5.85714286 -3.57142857 5.85714286 -4 2 C-3.01 2.495 -3.01 2.495 -2 3 C-2 3.66 -2 4.32 -2 5 C-1.34 5 -0.68 5 0 5 C0 3.35 0 1.7 0 0 Z " fill="#6BA157" transform="translate(146,100)"/>
<path d="M0 0 C0.66 0 1.32 0 2 0 C2.66 2.64 3.32 5.28 4 8 C2.02 8.33 0.04 8.66 -2 9 C-2.25 3.375 -2.25 3.375 0 0 Z " fill="#1D4E76" transform="translate(27,91)"/>
<path d="M0 0 C3 1 3 1 4.1875 3.0625 C4.455625 3.701875 4.72375 4.34125 5 5 C5.66 3.35 6.32 1.7 7 0 C8.0326802 2.78823655 8.04509293 3.8677274 7.0625 6.75 C6.711875 7.4925 6.36125 8.235 6 9 C5.01 9 4.02 9 3 9 C2.01 6.03 1.02 3.06 0 0 Z " fill="#CEB436" transform="translate(120,108)"/>
<path d="M0 0 C3.59627329 4.79503106 3.59627329 4.79503106 4 8 C3.56288458 10.75332474 2.76235947 13.30931953 2 16 C0 13 0 13 -1 10 C-0.34 10 0.32 10 1 10 C0.67 6.7 0.34 3.4 0 0 Z " fill="#38A3B3" transform="translate(69,96)"/>
<path d="M0 0 C0.66 0.66 1.32 1.32 2 2 C1.62793814 6.34072171 -0.22951915 10.07415115 -2 14 C-2.66 13.01 -3.32 12.02 -4 11 C-3.25 8.125 -3.25 8.125 -2 5 C-1.62875 4.05125 -1.2575 3.1025 -0.875 2.125 C-0.58625 1.42375 -0.2975 0.7225 0 0 Z " fill="#62A292" transform="translate(79,99)"/>
<path d="M0 0 C1.65 1.65 3.3 3.3 5 5 C4.67 5.99 4.34 6.98 4 8 C4.66 8 5.32 8 6 8 C6 9.32 6 10.64 6 12 C5.34 12 4.68 12 4 12 C4 11.01 4 10.02 4 9 C3.34 9 2.68 9 2 9 C0.50178941 5.62902617 0 3.79557881 0 0 Z " fill="#F6BE0D" transform="translate(111,83)"/>
<path d="M0 0 C0.99 0.33 1.98 0.66 3 1 C2.113125 1.556875 1.22625 2.11375 0.3125 2.6875 C-2.84279378 4.77853792 -5.39868111 7.24566235 -8 10 C-8.125 7.125 -8.125 7.125 -8 4 C-5.82467143 1.82467143 -4.89725531 1.6337746 -2 1 C-1.34 0.67 -0.68 0.34 0 0 Z " fill="#275560" transform="translate(151,79)"/>
<path d="M0 0 C0.33 0 0.66 0 1 0 C1.33 4.62 1.66 9.24 2 14 C1.01 14 0.02 14 -1 14 C-1.02685938 11.85423363 -1.04633088 9.70837355 -1.0625 7.5625 C-1.07410156 6.36753906 -1.08570312 5.17257813 -1.09765625 3.94140625 C-1 1 -1 1 0 0 Z " fill="#D7BC28" transform="translate(98,101)"/>
<path d="M0 0 C2.43868168 -0.1079859 4.87259133 -0.18726589 7.3125 -0.25 C8.00279297 -0.28351563 8.69308594 -0.31703125 9.40429688 -0.3515625 C11.42578125 -0.390625 11.42578125 -0.390625 15 0 C16.98046875 2.015625 16.98046875 2.015625 18 4 C16.906875 3.67 15.81375 3.34 14.6875 3 C9.47109568 1.67014468 4.34751531 1.82306016 -1 2 C-0.67 1.34 -0.34 0.68 0 0 Z " fill="#25575D" transform="translate(155,77)"/>
<path d="M0 0 C1.06032743 3.18098228 0.9708943 4.36533728 0.3125 7.5625 C0.16425781 8.34753906 0.01601562 9.13257812 -0.13671875 9.94140625 C-1 12 -1 12 -3.08203125 13.27734375 C-3.71496094 13.51582031 -4.34789063 13.75429687 -5 14 C-4.34580901 8.93001981 -2.1453591 4.58009223 0 0 Z " fill="#21576D" transform="translate(80,104)"/>
<path d="M0 0 C2.35953094 2.35953094 2.49141413 3.77895617 3 7 C3.99 7 4.98 7 6 7 C6.33 6.01 6.66 5.02 7 4 C7.33 5.65 7.66 7.3 8 9 C6.02 9 4.04 9 2 9 C1.01 6.36 0.02 3.72 -1 1 C-0.67 0.67 -0.34 0.34 0 0 Z " fill="#3EB7E7" transform="translate(38,107)"/>
<path d="M0 0 C0.66 0.66 1.32 1.32 2 2 C1.64700993 5.44165321 0.95418308 7.06872538 -1 10 C-1.99 9.67 -2.98 9.34 -4 9 C-2.68 6.03 -1.36 3.06 0 0 Z " fill="#44B0E0" transform="translate(15,106)"/>
<path d="M0 0 C0.33 0 0.66 0 1 0 C1.06058594 0.74765625 1.12117187 1.4953125 1.18359375 2.265625 C1.26738281 3.25046875 1.35117188 4.2353125 1.4375 5.25 C1.51871094 6.22453125 1.59992188 7.1990625 1.68359375 8.203125 C1.95074584 10.56461753 2.35371968 12.71901065 3 15 C1.68 15 0.36 15 -1 15 C-1.33 13.68 -1.66 12.36 -2 11 C-1.34 11 -0.68 11 0 11 C0 7.37 0 3.74 0 0 Z " fill="#275560" transform="translate(141,93)"/>
<path d="M0 0 C3.49413605 2.86698342 5.28836874 4.84150148 5.8125 9.3125 C5.874375 10.529375 5.93625 11.74625 6 13 C2.84297684 9.09130466 0 5.1385061 0 0 Z " fill="#37473B" transform="translate(115,83)"/>
<path d="M0 0 C1.65 0.33 3.3 0.66 5 1 C5 2.65 5 4.3 5 6 C4.34 6 3.68 6 3 6 C2.67 7.32 2.34 8.64 2 10 C2.33 7.36 2.66 4.72 3 2 C1.68 2.33 0.36 2.66 -1 3 C-0.67 2.01 -0.34 1.02 0 0 Z " fill="#2B535E" transform="translate(138,77)"/>
<path d="M0 0 C5.28 0 10.56 0 16 0 C16 0.33 16 0.66 16 1 C11.38 1 6.76 1 2 1 C1.34 2.32 0.68 3.64 0 5 C-0.33 4.01 -0.66 3.02 -1 2 C-0.67 1.34 -0.34 0.68 0 0 Z " fill="#135C8C" transform="translate(19,104)"/>
<path d="M0 0 C0.99 0.33 1.98 0.66 3 1 C2.25 3.9375 2.25 3.9375 1 7 C-0.32 7.33 -1.64 7.66 -3 8 C-2.01 5.36 -1.02 2.72 0 0 Z " fill="#3BAFE0" transform="translate(21,93)"/>
<path d="M0 0 C3.00617269 3.00617269 2.59585316 5.82381598 3 10 C2.34 10 1.68 10 1 10 C-0.80411967 7.24075815 -1.0127245 6.11027897 -0.625 2.75 C-0.41875 1.8425 -0.2125 0.935 0 0 Z " fill="#287AA5" transform="translate(41,96)"/>
<path d="M0 0 C0.99 0.33 1.98 0.66 3 1 C3.33 2.98 3.66 4.96 4 7 C1.525 6.01 1.525 6.01 -1 5 C-0.67 3.35 -0.34 1.7 0 0 Z " fill="#37C2F7" transform="translate(30,86)"/>
<path d="M0 0 C0.66 0 1.32 0 2 0 C3.39195915 4.17587745 1.82323219 6.13474776 0 10 C-0.33 10 -0.66 10 -1 10 C-1.125 3.375 -1.125 3.375 0 0 Z " fill="#8DAD4A" transform="translate(143,92)"/>
<path d="M0 0 C0.66 0 1.32 0 2 0 C2.99 2.97 3.98 5.94 5 9 C4.01 8.34 3.02 7.68 2 7 C2 6.01 2 5.02 2 4 C1.01 4 0.02 4 -1 4 C-0.67 2.68 -0.34 1.36 0 0 Z " fill="#41AEDE" transform="translate(28,78)"/>
<path d="M0 0 C1.98 0 3.96 0 6 0 C6.66 1.98 7.32 3.96 8 6 C7.34 5.67 6.68 5.34 6 5 C6 4.01 6 3.02 6 2 C4.68 2 3.36 2 2 2 C1.67 2.66 1.34 3.32 1 4 C0.67 2.68 0.34 1.36 0 0 Z " fill="#2099D4" transform="translate(56,79)"/>
<path d="M0 0 C0.99 0.33 1.98 0.66 3 1 C3.33 2.98 3.66 4.96 4 7 C3.01 7 2.02 7 1 7 C0.67 4.69 0.34 2.38 0 0 Z " fill="#F9BD09" transform="translate(119,101)"/>
<path d="M0 0 C2.09350689 3.4019487 2.17942163 6.05272412 2 10 C1.01 9.67 0.02 9.34 -1 9 C-1.33 8.01 -1.66 7.02 -2 6 C-1.34 6 -0.68 6 0 6 C0 4.02 0 2.04 0 0 Z " fill="#29AAC2" transform="translate(68,96)"/>
<path d="M0 0 C2.375 0.25 2.375 0.25 5 1 C6.3125 3.0625 6.3125 3.0625 7 5 C4.69 4.34 2.38 3.68 0 3 C0 2.01 0 1.02 0 0 Z " fill="#285961" transform="translate(164,81)"/>
<path d="M0 0 C0.66 0 1.32 0 2 0 C3.11658501 4.68965706 2.80619523 7.53763531 1 12 C0.67 12 0.34 12 0 12 C0 8.04 0 4.08 0 0 Z " fill="#C4BA38" transform="translate(97,81)"/>
<path d="M0 0 C2.50298434 2.93828597 3.46930939 5.17902761 4 9 C3.01 9 2.02 9 1 9 C0.67 6.03 0.34 3.06 0 0 Z " fill="#185D80" transform="translate(66,103)"/>
<path d="M0 0 C0.99 0 1.98 0 3 0 C3.33 1.65 3.66 3.3 4 5 C3.01 5.33 2.02 5.66 1 6 C0.34 4.35 -0.32 2.7 -1 1 C-0.67 0.67 -0.34 0.34 0 0 Z " fill="#2F515D" transform="translate(108,88)"/>
<path d="M0 0 C1.98 0 3.96 0 6 0 C6.33 1.32 6.66 2.64 7 4 C4.525 3.01 4.525 3.01 2 2 C1.67 2.99 1.34 3.98 1 5 C0.67 3.35 0.34 1.7 0 0 Z " fill="#BCB353" transform="translate(107,79)"/>
<path d="M0 0 C5.94 0.99 5.94 0.99 12 2 C12 2.33 12 2.66 12 3 C10.56465159 3.2226746 9.12654475 3.42761906 7.6875 3.625 C6.88699219 3.74101563 6.08648437 3.85703125 5.26171875 3.9765625 C3 4 3 4 0 2 C0 1.34 0 0.68 0 0 Z " fill="#275C58" transform="translate(152,115)"/>
<path d="M0 0 C2.15377564 2.62198774 3.40072174 4.64404172 4 8 C2.68 7.67 1.36 7.34 0 7 C0 4.69 0 2.38 0 0 Z " fill="#3F574D" transform="translate(118,106)"/>
<path d="M0 0 C2.50298434 2.93828597 3.46930939 5.17902761 4 9 C3.01 9 2.02 9 1 9 C0.67 6.03 0.34 3.06 0 0 Z " fill="#425849" transform="translate(114,97)"/>
<path d="M0 0 C1.5625 1.8125 1.5625 1.8125 3 4 C2.67 4.99 2.34 5.98 2 7 C1.01 6.67 0.02 6.34 -1 6 C-0.67 4.02 -0.34 2.04 0 0 Z " fill="#6FAB52" transform="translate(147,104)"/>
<path d="M0 0 C0.66 0.66 1.32 1.32 2 2 C1.625 5.125 1.625 5.125 1 8 C-0.32 7.34 -1.64 6.68 -3 6 C-2.34 5.67 -1.68 5.34 -1 5 C-0.34444881 2.47266765 -0.34444881 2.47266765 0 0 Z " fill="#A69B32" transform="translate(128,102)"/>
</svg>
