<?xml version="1.0" encoding="utf-8"?>
<!-- Generator: Adobe Illustrator 24.2.1, SVG Export Plug-In . SVG Version: 6.00 Build 0)  -->
<svg version="1.1" id="Layer_1" xmlns="http://www.w3.org/2000/svg" xmlns:xlink="http://www.w3.org/1999/xlink" x="0px" y="0px"
	 viewBox="0 0 283.46 283.46" style="enable-background:new 0 0 283.46 283.46;" xml:space="preserve">
<style type="text/css">
	.st0{fill-rule:evenodd;clip-rule:evenodd;fill:#0079B2;}
	.st1{fill-rule:evenodd;clip-rule:evenodd;fill:none;stroke:#000000;stroke-width:0.5;stroke-miterlimit:2.6131;}
</style>
<path class="st0" d="M66.23,150.78c-0.16,0.14-0.35,0.27-0.51,0.42c-2.53,2.27-1.1,2.71-0.3,4.05l8.13,15.42
	c3.25,5.07,4.81,8.37,8.06,11.77c3.44,3.6,8.13,10.52,12.68,14.14c3.74,2.98,5.79,5.36,11.12,9.22l20.7,12.5
	c1.74,0.76,3.36,1.5,4.85,2.12c4.36,1.83,6.92,2.42,11.18,4.55c4.07,2.04,50.36,11.47,56.7,7.56c-0.12-0.19-31.41-12.11-33.63-13.06
	c-4.62-1.98-24.67-13.51-28.83-18.31c-3.39-3.91-4.47-3.49-11.26-11.85c-3.28-4.03-6.94-10.01-8.77-14.78
	c-2.24-5.85-4.17-11.99-4.35-19.18c-0.61-24.01,52.18-40.43,71.63-42.17c5.95-0.53,83.67,37.59,93.66,38.34
	c-5.52-15.58-67.57-67.51-79.43-74.69c-1.11-0.67-1.78-0.76-2.98-1.27c-1.73-0.73-6.95-4.59-12.66-4.93
	c-3.29-0.2-5.6,0.06-8.41,0.35c-3.87,0.39-3.65,1.06-6.87,1.59l-12.12,5.46C124.26,95,91.83,125.18,66.23,150.78z"/>
<path class="st0" d="M118.17,164.39c0.06,0.22,0.27,2.42,0.71,3.45c0.68,1.55,0.1-0.4,0.68,1.52c0.25,0.82,0.17,0.97,0.5,1.88
	c1.36,3.81,4.22,9.47,6.71,12.77c1.51,1.99,2.69,3.56,4.28,5.41c0.74,0.86,1.66,1.44,2.46,2.15c0.84,0.74,1.25,1.44,2.23,2.39
	c10.37,10.02,21.63,17.09,34.47,23.39c5.41,2.65,3.38,2.44,9.77,4.57c5.26,1.76,9.01,4.35,17.59,6.43c2.76,0.67,4.46,1.99,7.82,1.93
	c-1.64-2.31-10.88-8.31-15.11-12.29c-2.7-2.54-3.25-2.42-6.41-5.58c-1.34-1.35-2.3-2.51-4.07-3.77
	c-4.13-2.95-11.87-13.19-14.85-17.07c-2.5-3.27-3.66-6.66-6.04-10.13c-0.84-1.22-0.61-0.95-1.19-2.47
	c-0.47-1.24-0.74-1.64-1.29-2.89c-6.24-14.2,0.95-22.45-9.04-34.43c-1.68-2.02-2.98-2.51-5.19-4.05
	c-3.83-2.66-11.81-2.31-14.93,0.25c-2.37,1.94-3.09,1.53-5.45,4.24c-1.47,1.68-2.3,3.35-3.37,5.79
	C116.58,152.11,116.93,159.85,118.17,164.39z"/>
<path class="st0" d="M210.35,220.43c-0.41-3.42-2.18-4.84-3.28-7.11c-14.08-29.09-14.95-43.5-14.73-74.62
	c-0.05-1.96-1.55-4.29-2.11-5.26l-0.64-1.27c-2.02-3.75-8.76-6.32-13.02-7.36c-8.04-1.96-16.2,3-20.12,9.85
	C144.38,155.78,189.99,217.63,210.35,220.43z"/>
<path class="st0" d="M46.93,113.1c1.57,1.94,4.1,7.08,5.28,9.5c2.71,5.57,4.34,11.75,6.24,17.38c1.23,3.65,0.8,6.6,3.58,8.38
	c4.22-3.62,31.58-26.78,33.9-30.92c-1.28-2.3-2.52-3.23-4.15-4.79c-1.34-1.28-3.44-3.14-4.3-4.88c-1.98-0.63-9.64-8.62-11.18-9.64
	c-1.16-0.77-1.69-1.08-2.72-1.96C55.44,83.81,30.01,65.82,8.86,84.15c-1.19,1.03-2.47,2.02-2.7,3.6
	C27.94,85.78,35,98.36,46.93,113.1z"/>
<path class="st0" d="M83.87,53.75c-8.89,5.48-14.94,20.83-8.79,32.53c2.59,4.93,3.83,7.75,8.72,11.21
	c7.97,5.63,20.66,6.96,30.45,0.03c8.64-6.12,13.54-16.56,10.6-28.01C119.81,49.83,95.94,45.94,83.87,53.75z"/>
<path class="st0" d="M214.45,205.42c4.28,3.82,7.97,7.91,15.38,7.98c5.99,0.05,11.9-2.45,15.19-7.47
	c-7.76,0.71-19.77,7.47-24.43-11.29c-1.27-16.22,9.96-15.29,12.18-24.76c1.04-4.45-1.45-9.99-5.15-12.36
	C206.97,148.96,196.99,189.82,214.45,205.42z"/>
<path class="st0" d="M252.08,205.26c1.44-0.28,1.43-0.45,2.13-1.49c12.07-20.62,15.64-36.67,2.68-50.49c-2-2.78-8.11-7.68-11.3-7.86
	c-5.2-0.29-12.76,0.01-12.29,7.15c0.49,7.45,28.6,12.59,21.98,38.99C254.39,195.12,252.28,202.2,252.08,205.26z"/>
<path class="st0" d="M199.36,151.49c-1.19,3.23-1.63,6.71-2.44,10.22l-0.65,9.42c0.55,7.06,8.7-10.51,17.53-15.62
	c1.4-0.81,2.49-1.33,3.89-2.17l7.21-3.86c1.36-0.63,2.68-1.14,3.87-1.74c11.58-5.85,5.21-14.78-9.13-13.22
	C209.7,135.6,202.96,141.69,199.36,151.49z"/>
<rect x="0.34" y="0.31" class="st1" width="0" height="0"/>
<rect x="282.72" y="282.92" class="st1" width="0" height="0"/>
</svg>
